<svg xmlns="http://www.w3.org/2000/svg" viewBox="0 0 64 64" width="64" height="64">
  <!-- Background circle -->
  <circle cx="32" cy="32" r="32" fill="#0D0D0D"/>
  <!-- Gold ring -->
  <circle cx="32" cy="32" r="30" fill="none" stroke="#D4A017" stroke-width="2"/>
  <!-- Chili pepper body -->
  <path d="M32 10 C28 10 24 14 22 20 C19 28 20 38 26 44 C28 46 30 47 32 47 C34 47 36 46 38 44 C44 38 45 28 42 20 C40 14 36 10 32 10Z" fill="#C0392B"/>
  <!-- Pepper highlight -->
  <path d="M27 14 C25 17 24 22 25 28 C26 22 28 17 32 14 C30 13 28 13 27 14Z" fill="#E74C3C" opacity="0.6"/>
  <!-- Stem -->
  <path d="M32 10 C32 10 31 6 29 4 C31 5 33 7 33 10Z" fill="#2D6A2D"/>
  <path d="M32 10 C32 10 34 7 36 6 C35 8 33 10 32 10Z" fill="#238C55"/>
  <!-- Tail -->
  <ellipse cx="32" cy="47" rx="3" ry="2" fill="#8B1A1A"/>
</svg>